# xmcd
#
# Track frame offsets:
#	150
#	7352
#	24632
#	50347
#	91760
#	109282
#	123045
#	159247
#
# Disc length: 2288 seconds
#
# Revision: 1
# Processed by: cddbd v1.4PL0 Copyright (c) Steve Scherf et al.
# Submitted via: audiograbber 1.80
#
DISCID=5a08ee08
DTITLE=Kepler - Fuck Fight Fail
DYEAR=1900
DGENRE=
TTITLE0=I will not return your records
TTITLE1=Loose Ground
TTITLE2=Light House
TTITLE3=Upper Canada fight song
TTITLE4=The elegant recline
TTITLE5=The way you fall apart
TTITLE6=The changing light at Sandover
TTITLE7=Box 3, Reel 5
EXTD=Slow Emo Rock ... Sounds a bit like Savoy Grand with Pedro the Lion
EXTT0=
EXTT1=
EXTT2=
EXTT3=
EXTT4=
EXTT5=
EXTT6=
EXTT7=
PLAYORDER=
